<svg width="47" height="10" viewBox="0 0 47 10" fill="none" xmlns="http://www.w3.org/2000/svg">
  <path d="M6.24991 6.57313H8.76713C8.73351 7.25005 8.53697 7.84682 8.17736 8.36336C7.81776 8.87998 7.31912 9.28301 6.68137 9.57244C6.04853 9.85746 5.30054 10 4.43746 10C3.73745 10 3.11175 9.89083 2.56037 9.67263C2.01375 9.45443 1.54866 9.14047 1.1651 8.73074C0.786307 8.32108 0.496259 7.8245 0.294884 7.24114C0.0982701 6.65777 0 6.0009 0 5.2705V4.74283C0 4.01246 0.103105 3.35559 0.309241 2.77221C0.520212 2.18437 0.817476 1.68559 1.20111 1.27588C1.58942 0.861722 2.05451 0.545533 2.5963 0.32732C3.13816 0.109106 3.73983 0 4.40153 0C5.31252 0 6.08208 0.151413 6.71016 0.454239C7.33832 0.757065 7.82498 1.17345 8.17015 1.7034C8.51539 2.2289 8.71915 2.82787 8.78149 3.50033H6.26427C6.25467 3.13515 6.18757 2.8301 6.06289 2.58516C5.93821 2.33578 5.74167 2.14873 5.47312 2.02404C5.20465 1.89935 4.84743 1.837 4.40153 1.837C4.08991 1.837 3.81898 1.89045 3.58882 1.99732C3.35865 2.1042 3.16687 2.27343 3.01348 2.505C2.86001 2.73657 2.74493 3.03717 2.66823 3.4068C2.5963 3.77198 2.56037 4.21287 2.56037 4.72942V5.2705C2.56037 5.78712 2.59392 6.22801 2.66109 6.59317C2.72819 6.95833 2.83606 7.25668 2.98469 7.48829C3.13332 7.71989 3.3251 7.89131 3.56003 8.00262C3.79979 8.10951 4.09229 8.16299 4.43746 8.16299C4.82109 8.16299 5.14469 8.1073 5.40841 7.99599C5.67212 7.88019 5.87587 7.70649 6.01975 7.47495C6.16362 7.23893 6.24031 6.9383 6.24991 6.57313ZM17.0164 4.00132V5.80494H11.6439V4.00132H17.0164ZM12.4854 0.140282V9.86637H9.96095V0.140282H12.4854ZM18.7137 0.140282V9.86637H16.1965V0.140282H18.7137ZM27.5239 8.06274V9.86637H21.9429V8.06274H27.5239ZM22.8419 0.140282V9.86637H20.3175V0.140282H22.8419ZM26.8047 4.00132V5.74483H21.9429V4.00132H26.8047ZM27.5455 0.140282V1.95056H21.9429V0.140282H27.5455ZM34.5146 6.57313H37.0318C36.9983 7.25005 36.8017 7.84682 36.4421 8.36336C36.0825 8.87998 35.5838 9.28301 34.9462 9.57244C34.3132 9.85746 33.5652 10 32.7022 10C32.0022 10 31.3765 9.89083 30.8251 9.67263C30.2785 9.45443 29.8134 9.14047 29.4298 8.73074C29.0511 8.32108 28.761 7.8245 28.5596 7.24114C28.3631 6.65777 28.2647 6.0009 28.2647 5.2705V4.74283C28.2647 4.01246 28.3678 3.35559 28.5739 2.77221C28.7849 2.18437 29.0822 1.68559 29.4658 1.27588C29.8541 0.861722 30.3192 0.545533 30.8611 0.32732C31.4029 0.109106 32.0046 0 32.6662 0C33.5772 0 34.3468 0.151413 34.9749 0.454239C35.603 0.757065 36.0897 1.17345 36.4349 1.7034C36.7801 2.2289 36.9839 2.82787 37.0462 3.50033H34.529C34.5194 3.13515 34.4523 2.8301 34.3276 2.58516C34.2029 2.33578 34.0064 2.14873 33.7378 2.02404C33.4694 1.89935 33.1121 1.837 32.6662 1.837C32.3546 1.837 32.0837 1.89045 31.8535 1.99732C31.6234 2.1042 31.4317 2.27343 31.2782 2.505C31.1248 2.73657 31.0097 3.03717 30.9329 3.4068C30.8611 3.77198 30.8251 4.21287 30.8251 4.72942V5.2705C30.8251 5.78712 30.8586 6.22801 30.9258 6.59317C30.9929 6.95833 31.1008 7.25668 31.2494 7.48829C31.398 7.71989 31.5898 7.89131 31.8248 8.00262C32.0645 8.10951 32.357 8.16299 32.7022 8.16299C33.0858 8.16299 33.4094 8.1073 33.6731 7.99599C33.9368 7.88019 34.1407 7.70649 34.2845 7.47495C34.4283 7.23893 34.505 6.9383 34.5146 6.57313ZM40.7501 0.140282V9.86637H38.2257V0.140282H40.7501ZM47 0.140282L42.9436 5.07013L40.5703 7.48158L40.11 5.33061L41.6275 3.19304L43.8859 0.140282H47ZM44.0153 9.86637L41.3111 5.48428L43.2745 4.14164L47 9.86637H44.0153Z" fill="white" />
</svg>